<?xml version="1.0" encoding="UTF-8" standalone="no"?>
<!-- Created with Inkscape (http://www.inkscape.org/) -->

<svg
   width="70"
   height="40"
   viewBox="0 0 70 40"
   version="1.1"
   id="svg5"
   sodipodi:docname="secondry.svg"
   inkscape:version="1.2.2 (b0a8486541, 2022-12-01)"
   xmlns:inkscape="http://www.inkscape.org/namespaces/inkscape"
   xmlns:sodipodi="http://sodipodi.sourceforge.net/DTD/sodipodi-0.dtd"
   xmlns="http://www.w3.org/2000/svg"
   xmlns:svg="http://www.w3.org/2000/svg">
  <sodipodi:namedview
     id="namedview49"
     pagecolor="#ffffff"
     bordercolor="#000000"
     borderopacity="0.25"
     inkscape:showpageshadow="2"
     inkscape:pageopacity="0.0"
     inkscape:pagecheckerboard="0"
     inkscape:deskcolor="#d1d1d1"
     showgrid="false"
     inkscape:zoom="8.7667766"
     inkscape:cx="36.558477"
     inkscape:cy="21.273498"
     inkscape:window-width="1366"
     inkscape:window-height="691"
     inkscape:window-x="0"
     inkscape:window-y="0"
     inkscape:window-maximized="1"
     inkscape:current-layer="svg5" />
  <defs
     id="defs2" />
  <g
     id="layer1"
     style="fill:#2abf00;fill-opacity:1">
    <g
       aria-label="برقوقة"
       id="text233"
       style="font-size:21.3333px;font-family:Marhey;-inkscape-font-specification:Marhey;text-align:end;text-anchor:end;fill:#2abf00;stroke:#000000;stroke-width:2;fill-opacity:1">
      <path
         d="m 55.074482,24.544273 v -1.87733 q 0.831999,0 1.279998,-0.319999 0.469333,-0.32 0.661333,-0.874666 0.191999,-0.575999 0.191999,-1.279998 0,-0.874665 -0.213333,-1.81333 -0.191999,-0.959999 -0.426666,-1.855997 l 4.58666,-1.087999 q 0.106666,0.703999 0.149333,1.365332 0.064,0.661332 0.064,1.322664 0,1.983997 -0.618666,3.434661 -0.618666,1.450665 -2.00533,2.218664 -1.365331,0.767998 -3.669328,0.767998 z m 3.861328,4.607993 q -0.576,-0.362666 -1.130665,-0.810665 -0.554666,-0.448 -0.938665,-0.938665 l 1.770663,-1.898664 q 0.490666,0.554666 0.959999,0.981332 0.490666,0.426666 1.109331,0.853332 z"
         style="-inkscape-font-specification:'Marhey, @wght=600';font-variation-settings:'wght' 600;fill:#2abf00;stroke:none;fill-opacity:1"
         id="path994" />
      <path
         d="m 48.930477,34.677591 -3.306662,-3.477328 q 1.386665,-0.938665 2.218663,-1.770664 0.831999,-0.831999 1.365331,-1.791997 0.533333,-0.959999 0.981332,-2.26133 0.341333,-0.959998 0.895999,-1.514664 0.554666,-0.554666 1.215998,-0.789332 0.682665,-0.256 1.386664,-0.32 0.725333,-0.08533 1.386665,-0.08533 l 0.426666,0.938665 -0.426666,0.938665 q -0.533333,0 -0.938665,0.213333 -0.405333,0.213333 -0.618666,0.618666 -0.213333,0.426666 -0.277333,1.002665 -0.08533,0.831999 -0.298666,1.877331 -0.192,1.066664 -0.639999,2.197329 -0.447999,1.151999 -1.279998,2.239997 -0.810666,1.087998 -2.090663,1.983997 z"
         style="-inkscape-font-specification:'Marhey, @wght=600';font-variation-settings:'wght' 600;fill:#2abf00;stroke:none;fill-opacity:1"
         id="path996" />
      <path
         id="path998"
         style="-inkscape-font-specification:'Marhey, @wght=600';font-variation-settings:'wght' 600;fill:#2abf00;stroke:none;fill-opacity:1"
         d="m 59.238281,4.9121094 c -1.990543,-0.018652 -5.118942,0.5346883 -8.042969,1.3769531 -3.500503,1.0083187 -4.121064,0.9960648 -6.646484,3.5214844 -1.637822,1.6378221 -1.476562,3.1132811 -1.476562,3.1132811 l -2.527344,1.65625 c 0,0 -1.094065,-0.595863 -1.177734,-0.533203 -0.23556,0.176423 -0.443755,0.36849 -0.623047,0.576172 -0.120279,0.139324 2.409413,2.663014 2.314453,2.816406 -0.369777,0.58311 -0.554688,1.181414 -0.554688,1.792969 0,0.668442 0.192174,1.259486 0.576172,1.771484 0.398222,0.511999 0.90938,0.945227 1.535156,1.300782 0.0084,0.0047 0.01697,0.009 0.02539,0.01367 -0.910675,0.232363 -1.941601,0.347657 -3.095703,0.347657 v 1.878906 c 1.507551,0 2.906952,-0.114242 4.201172,-0.341797 1.30844,-0.227555 2.446953,-0.568327 3.414062,-1.023437 0.98133,-0.45511 1.74276,-1.017105 2.283203,-1.685547 0.554665,-0.682666 0.832032,-1.465882 0.832032,-2.347657 0,-0.810665 -0.199436,-1.49221 -0.597657,-2.046875 -0.39822,-0.568887 -0.94569,-0.996806 -1.642578,-1.28125 -0.696887,-0.298665 -1.494627,-0.447265 -2.390625,-0.447265 -1.180442,0 -2.146615,0.199435 -2.90039,0.597656 -0.104892,0.05344 -0.865235,-0.550781 -0.865235,-0.550781 l 2.089844,-1.347657 c 0,0 2.323988,-0.09263 2.769531,-0.175781 2.856694,-0.533137 4.134912,-0.719824 6.984375,-1.835937 3.127246,-1.22492 8.38329,-5.8720983 7.398438,-6.7402346 -0.307767,-0.2712926 -0.97802,-0.3977718 -1.882813,-0.40625 z m -4.515594,3.0485144 c 0.100936,2.864e-4 0.208984,0.037109 0.208984,0.037109 l -4.634796,2.4964082 c 0,0 -4.136911,2.359356 -4.931641,1.728515 -1.583633,-1.257057 7.843411,-4.2663282 9.357453,-4.2620322 z M 44.556641,18.25 c 0.469332,0 0.860939,0.114242 1.173828,0.341797 0.312887,0.213333 0.46875,0.519747 0.46875,0.917969 0,0.52622 -0.284628,1.030117 -0.853516,1.513672 -0.205866,0.174986 -0.439432,0.33955 -0.701172,0.492187 -0.357222,-0.17045 -0.672897,-0.361365 -0.941406,-0.576172 -0.554665,-0.469332 -0.832031,-0.931608 -0.832031,-1.386719 0,-0.341332 0.150552,-0.640485 0.449218,-0.896484 C 43.618978,18.386028 44.03042,18.25 44.556641,18.25 Z" />
      <path
         d="m 37.282675,24.544273 v -1.87733 q 0.554666,0 1.109332,0 0.575999,0 1.151998,0 l 0.426666,0.917332 -0.426666,0.938665 q -0.575999,0 -1.151998,0.02133 -0.554666,0 -1.109332,0 z m -4.970659,8.319987 -3.135995,-3.498661 q 1.301332,-0.789332 2.495996,-1.621331 1.215999,-0.831998 2.154664,-1.74933 0.938665,-0.917332 1.471997,-1.962664 0.554666,-1.045331 0.554666,-2.26133 0,-0.725332 -0.298666,-1.194664 -0.298666,-0.490666 -0.767999,-0.725333 -0.447999,-0.234666 -0.917332,-0.234666 -0.575999,0 -1.087998,0.362666 -0.511999,0.362666 -0.511999,0.981332 0,0.597332 0.490666,0.981332 0.490666,0.362666 1.322664,0.554666 0.853332,0.170666 1.898664,0.170666 l -0.256,1.962664 q -2.090663,0 -3.605327,-0.576 -1.514665,-0.575999 -2.346663,-1.578664 -0.831999,-1.023998 -0.831999,-2.303996 0,-1.194665 0.554666,-2.13333 0.554666,-0.938665 1.535997,-1.471998 1.002666,-0.533332 2.26133,-0.533332 1.493331,0 2.645329,0.703999 1.151999,0.703999 1.813331,2.047996 0.682665,1.322665 0.682665,3.221329 0,1.834663 -0.533332,3.391994 -0.511999,1.578665 -1.407998,2.922662 -0.874665,1.343998 -1.962663,2.474663 -1.066665,1.130665 -2.218664,2.06933 z"
         style="-inkscape-font-specification:'Marhey, @wght=600';font-variation-settings:'wght' 600;fill:#2abf00;stroke:none;fill-opacity:1"
         id="path1000" />
      <path
         d="m 16.823581,24.544273 v -1.87733 q 1.962664,0 3.455995,-0.447999 1.493331,-0.469333 2.346663,-1.194665 0.853332,-0.725332 0.853332,-1.514664 0,-0.597333 -0.469333,-0.917332 -0.469333,-0.341333 -1.173332,-0.341333 -0.789332,0 -1.237331,0.405333 -0.447999,0.383999 -0.447999,0.895998 0,0.682666 0.831998,1.386665 0.853332,0.682665 2.303997,1.066665 l -1.343998,1.109331 q -1.087998,-0.277333 -2.047997,-0.810665 -0.938665,-0.533333 -1.535997,-1.301331 -0.576,-0.767999 -0.576,-1.770664 0,-0.917332 0.554666,-1.791997 0.554666,-0.895999 1.685331,-1.471998 1.130665,-0.597332 2.901329,-0.597332 1.343998,0 2.389329,0.447999 1.045332,0.426666 1.642664,1.279998 0.597333,0.831998 0.597333,2.047997 0,1.322664 -0.831999,2.346663 -0.810665,1.002665 -2.282663,1.68533 -1.450664,0.682666 -3.413328,1.023999 -1.94133,0.341332 -4.20266,0.341332 z M 21.53824,14.368289 q -0.533332,-0.362666 -1.066665,-0.789332 -0.511999,-0.426666 -0.895998,-0.895998 l 1.68533,-1.791997 q 0.448,0.490666 0.917332,0.917331 0.469333,0.426666 1.066665,0.810666 z m 2.559996,0 q -0.533332,-0.362666 -1.066665,-0.789332 -0.511999,-0.426666 -0.895998,-0.895998 l 1.68533,-1.791997 q 0.448,0.490666 0.917332,0.917331 0.469333,0.426666 1.066665,0.810666 z"
         style="-inkscape-font-specification:'Marhey, @wght=600';font-variation-settings:'wght' 600;fill:#2abf00;stroke:none;fill-opacity:1"
         id="path1002" />
      <path
         d="m 8.6315883,24.224274 q -0.7466655,0 -1.4506644,-0.32 -0.6826656,-0.341332 -1.1093316,-1.002665 -0.426666,-0.682665 -0.426666,-1.642664 0,-1.450664 0.6613323,-2.474663 0.6613323,-1.045331 1.7493306,-1.706663 1.0879983,-0.682666 2.3466628,-1.002666 1.279998,-0.319999 2.474663,-0.319999 v 1.386664 q -1.066665,0 -1.855997,0.277333 -0.789332,0.256 -1.3013314,0.682666 -0.5119992,0.405333 -0.7679988,0.853332 -0.2346663,0.447999 -0.2346663,0.853332 0,0.575999 0.3199995,0.831999 0.3413328,0.255999 0.7466655,0.255999 0.3839995,0 0.7253315,-0.213333 0.341333,-0.213333 0.554666,-0.597332 0.234667,-0.384 0.234667,-0.853332 h 1.258664 q -0.02133,0.917332 -0.298666,1.81333 -0.256,0.874666 -0.746665,1.599998 -0.490666,0.725332 -1.215998,1.151998 -0.7253325,0.426666 -1.6639977,0.426666 z m 8.1919867,0.319999 q -2.175996,0 -3.370661,-0.618665 -1.194665,-0.639999 -1.685331,-1.813331 -0.469332,-1.194665 -0.469332,-2.879995 0,-0.618666 0.02133,-1.237332 0.04267,-0.639999 0.08533,-1.301331 0.064,-0.661332 0.149333,-1.365331 l 4.13866,-0.383999 q -0.128,0.789332 -0.255999,1.599997 -0.128,0.789332 -0.234667,1.599997 -0.08533,0.789333 -0.106666,1.621331 -0.04267,0.895999 0.149333,1.557331 0.192,0.661332 0.575999,1.002665 0.405333,0.341333 1.002665,0.341333 l 0.426666,0.938665 z M 10.103586,13.770957 Q 9.5702535,13.408291 9.036921,12.981625 8.5249218,12.554959 8.1409224,12.085626 l 1.6853307,-1.791997 q 0.4479989,0.490666 0.9173319,0.917332 0.469332,0.426666 1.066665,0.810665 z m 2.559996,0 q -0.533333,-0.362666 -1.066665,-0.789332 -0.511999,-0.426666 -0.895999,-0.895999 l 1.685331,-1.791997 q 0.447999,0.490666 0.917332,0.917332 0.469332,0.426666 1.066665,0.810665 z"
         style="-inkscape-font-specification:'Marhey, @wght=600';font-variation-settings:'wght' 600;fill:#2abf00;stroke:none;fill-opacity:1"
         id="path1004" />
    </g>
  </g>
</svg>
